<svg xmlns="http://www.w3.org/2000/svg" viewBox="0 0 700 334" width="700" role="img" font-family="system-ui,-apple-system,'Segoe UI',sans-serif"><defs><marker id="arrow" viewBox="0 0 10 10" refX="9" refY="5" markerWidth="7" markerHeight="7" orient="auto-start-reverse"><path d="M 0 1 L 9 5 L 0 9 z" fill="#9198a1"/></marker></defs><path d="M 16 30 A 61.0 8 0 0 1 138 30 V 80 A 61.0 8 0 0 1 16 80 Z" fill="#3987e5" fill-opacity="0.14" stroke="#3987e5" stroke-width="1.5"/><path d="M 16 30 A 61.0 8 0 0 0 138 30" fill="none" stroke="#3987e5" stroke-width="1.5"/><text x="77.0" y="53.5" text-anchor="middle" dominant-baseline="middle" font-family="system-ui,-apple-system,'Segoe UI',sans-serif" font-size="14.5" font-weight="600" fill="#e6edf3">Hot Buffer</text><text x="77.0" y="70.5" text-anchor="middle" dominant-baseline="middle" font-family="system-ui,-apple-system,'Segoe UI',sans-serif" font-size="12.5" font-weight="400" fill="#e6edf3">(10 min, RAM)</text><path d="M 16 130 A 75.0 8 0 0 1 166 130 V 174 A 75.0 8 0 0 1 16 174 Z" fill="#3987e5" fill-opacity="0.14" stroke="#3987e5" stroke-width="1.5"/><path d="M 16 130 A 75.0 8 0 0 0 166 130" fill="none" stroke="#3987e5" stroke-width="1.5"/><text x="91.0" y="150.5" text-anchor="middle" dominant-baseline="middle" font-family="system-ui,-apple-system,'Segoe UI',sans-serif" font-size="14.5" font-weight="600" fill="#e6edf3">Motion Store</text><text x="91.0" y="167.5" text-anchor="middle" dominant-baseline="middle" font-family="system-ui,-apple-system,'Segoe UI',sans-serif" font-size="12.5" font-weight="400" fill="#e6edf3">(RAM)</text><rect x="270" y="60" width="178" height="44" rx="7" fill="#161b22" stroke="#3d444d" stroke-width="1.5"/><text x="359.0" y="82.0" text-anchor="middle" dominant-baseline="middle" font-family="system-ui,-apple-system,'Segoe UI',sans-serif" font-size="14.5" font-weight="600" fill="#e6edf3">Subsample 4 frames</text><rect x="520" y="60" width="150" height="44" rx="7" fill="#161b22" stroke="#3d444d" stroke-width="1.5"/><text x="595.0" y="82.0" text-anchor="middle" dominant-baseline="middle" font-family="system-ui,-apple-system,'Segoe UI',sans-serif" font-size="14.5" font-weight="600" fill="#e6edf3">Crop + JPEG</text><rect x="240" y="186" width="220" height="44" rx="7" fill="#161b22" stroke="#3d444d" stroke-width="1.5"/><text x="350.0" y="199.5" text-anchor="middle" dominant-baseline="middle" font-family="system-ui,-apple-system,'Segoe UI',sans-serif" font-size="14.5" font-weight="600" fill="#e6edf3">Detection Worker</text><text x="350.0" y="216.5" text-anchor="middle" dominant-baseline="middle" font-family="system-ui,-apple-system,'Segoe UI',sans-serif" font-size="12.5" font-weight="400" fill="#e6edf3">(global, serial)</text><rect x="580" y="186" width="110" height="44" rx="7" fill="#d95926" fill-opacity="0.14" stroke="#d95926" stroke-width="1.5"/><text x="635.0" y="208.0" text-anchor="middle" dominant-baseline="middle" font-family="system-ui,-apple-system,'Segoe UI',sans-serif" font-size="14.5" font-weight="600" fill="#e6edf3">Ollama</text><path d="M 16 258 A 75.0 8 0 0 1 166 258 V 302 A 75.0 8 0 0 1 16 302 Z" fill="#3987e5" fill-opacity="0.14" stroke="#3987e5" stroke-width="1.5"/><path d="M 16 258 A 75.0 8 0 0 0 166 258" fill="none" stroke="#3987e5" stroke-width="1.5"/><text x="91.0" y="278.5" text-anchor="middle" dominant-baseline="middle" font-family="system-ui,-apple-system,'Segoe UI',sans-serif" font-size="14.5" font-weight="600" fill="#e6edf3">Detection Store</text><text x="91.0" y="295.5" text-anchor="middle" dominant-baseline="middle" font-family="system-ui,-apple-system,'Segoe UI',sans-serif" font-size="12.5" font-weight="400" fill="#e6edf3">(RAM)</text><polyline points="138,55 270,72" fill="none" stroke="#9198a1" stroke-width="1.5" marker-end="url(#arrow)"/><text x="204.0" y="55.5" text-anchor="middle" font-family="system-ui,-apple-system,'Segoe UI',sans-serif" font-size="12" fill="#9198a1" stroke="#0d1117" stroke-width="4" paint-order="stroke">motion event</text><polyline points="166,152 270,104" fill="none" stroke="#9198a1" stroke-width="1.5" marker-end="url(#arrow)"/><text x="218.0" y="118.0" text-anchor="middle" font-family="system-ui,-apple-system,'Segoe UI',sans-serif" font-size="12" fill="#9198a1" stroke="#0d1117" stroke-width="4" paint-order="stroke">bounding boxes</text><polyline points="448,82 520,82" fill="none" stroke="#9198a1" stroke-width="1.5" marker-end="url(#arrow)"/><polyline points="595,104 595,145 370,145 370,186" fill="none" stroke="#9198a1" stroke-width="1.5" marker-end="url(#arrow)"/><text x="482.5" y="138.0" text-anchor="middle" font-family="system-ui,-apple-system,'Segoe UI',sans-serif" font-size="12" fill="#9198a1" stroke="#0d1117" stroke-width="4" paint-order="stroke">bounded queue</text><polyline points="460,208 580,208" fill="none" stroke="#9198a1" stroke-width="1.5" marker-end="url(#arrow)"/><text x="520.0" y="199.0" text-anchor="middle" font-family="system-ui,-apple-system,'Segoe UI',sans-serif" font-size="12" fill="#9198a1" stroke="#0d1117" stroke-width="4" paint-order="stroke">one in flight</text><polyline points="240,219 194,240 166,268" fill="none" stroke="#9198a1" stroke-width="1.5" marker-end="url(#arrow)"/><polyline points="350,230 350,268" fill="none" stroke="#9198a1" stroke-width="1.5" stroke-dasharray="5 5" marker-end="url(#arrow)"/><text x="350.0" y="253.0" text-anchor="middle" font-family="system-ui,-apple-system,'Segoe UI',sans-serif" font-size="12" fill="#9198a1" stroke="#0d1117" stroke-width="4" paint-order="stroke">upgrade event</text><path d="M 280 276 A 80.0 8 0 0 1 440 276 V 310 A 80.0 8 0 0 1 280 310 Z" fill="#199e70" fill-opacity="0.14" stroke="#199e70" stroke-width="1.5"/><path d="M 280 276 A 80.0 8 0 0 0 440 276" fill="none" stroke="#199e70" stroke-width="1.5"/><text x="360.0" y="300.0" text-anchor="middle" dominant-baseline="middle" font-family="system-ui,-apple-system,'Segoe UI',sans-serif" font-size="14.5" font-weight="600" fill="#e6edf3">Warm Writer</text></svg>